HIERARCHY
ROOT Hips
{
 OFFSET 0.000000 0.000000 0.000000
 CHANNELS 6 Xposition Yposition Zposition Yrotation Xrotation Zrotation
 JOINT Chest
 {
  OFFSET 0.000000 12.778769 -0.025672
  CHANNELS 3 Yrotation Xrotation Zrotation
  JOINT Chest2
  {
   OFFSET 0.000000 9.048585 0.046633
   CHANNELS 3 Yrotation Xrotation Zrotation
   JOINT Chest3
   {
    OFFSET 0.000000 8.173956 0.000000
    CHANNELS 3 Yrotation Xrotation Zrotation
    JOINT Chest4
    {
     OFFSET 0.000000 8.173956 0.000000
     CHANNELS 3 Yrotation Xrotation Zrotation
     JOINT Neck
     {
      OFFSET 0.000000 11.254521 0.000000
      CHANNELS 3 Yrotation Xrotation Zrotation
      JOINT Head
      {
       OFFSET 0.000000 7.627541 0.110895
       CHANNELS 3 Yrotation Xrotation Zrotation
       End Site
       {
        OFFSET 0.000000 14.324091 0.057923
       }
      }
     }
     JOINT RightCollar
     {
      OFFSET -2.416021 6.309018 0.000000
      CHANNELS 3 Yrotation Xrotation Zrotation
      JOINT RightShoulder
      {
       OFFSET -12.309578 0.000000 0.000000
       CHANNELS 3 Yrotation Xrotation Zrotation
       JOINT RightElbow
       {
        OFFSET -26.817880 0.000000 0.000000
        CHANNELS 3 Yrotation Xrotation Zrotation
        JOINT RightWrist
        {
         OFFSET -22.046493 0.000000 0.005727
         CHANNELS 3 Yrotation Xrotation Zrotation
         End Site
         {
          OFFSET -16.516461 0.000000 0.000000
         }
        }
       }
      }
     }
     JOINT LeftCollar
     {
      OFFSET 2.416021 6.309018 0.000000
      CHANNELS 3 Yrotation Xrotation Zrotation
      JOINT LeftShoulder
      {
       OFFSET 12.309578 0.000000 0.000000
       CHANNELS 3 Yrotation Xrotation Zrotation
       JOINT LeftElbow
       {
        OFFSET 26.817880 0.000000 0.000000
        CHANNELS 3 Yrotation Xrotation Zrotation
        JOINT LeftWrist
        {
         OFFSET 22.046493 0.000000 0.005727
         CHANNELS 3 Yrotation Xrotation Zrotation
         End Site
         {
          OFFSET 16.516461 0.000000 0.000000
         }
        }
       }
      }
     }
    }
   }
  }
 }
 JOINT RightHip
 {
  OFFSET -10.582077 0.125794 0.012836
  CHANNELS 3 Yrotation Xrotation Zrotation
  JOINT RightKnee
  {
   OFFSET 0.000000 -43.218284 0.001140
   CHANNELS 3 Yrotation Xrotation Zrotation
   JOINT RightAnkle
   {
    OFFSET 0.000000 -37.342314 0.092095
    CHANNELS 3 Yrotation Xrotation Zrotation
    JOINT RightToe
    {
     OFFSET 0.000000 -11.963287 17.799678
     CHANNELS 3 Yrotation Xrotation Zrotation
     End Site
     {
      OFFSET 0.000000 -1.355498 5.291052
     }
    }
   }
  }
 }
 JOINT LeftHip
 {
  OFFSET 10.582077 0.125794 0.012836
  CHANNELS 3 Yrotation Xrotation Zrotation
  JOINT LeftKnee
  {
   OFFSET 0.000000 -43.218284 0.001140
   CHANNELS 3 Yrotation Xrotation Zrotation
   JOINT LeftAnkle
   {
    OFFSET 0.000000 -37.342314 0.092095
    CHANNELS 3 Yrotation Xrotation Zrotation
    JOINT LeftToe
    {
     OFFSET 0.000000 -11.963287 17.799678
     CHANNELS 3 Yrotation Xrotation Zrotation
     End Site
     {
      OFFSET 0.000000 -1.355498 5.291052
     }
    }
   }
  }
 }
}
MOTION
Frames: 14
Frame Time: 0.016667
0.000000 92.231762 0.000000 0.000000 -5.826342 0.000000 0.000000 11.116423 0.000000 0.000000 -5.290081 0.000000 0.000000 0.000000 0.000000 0.000000 0.000000 0.000000 0.000000 12.665069 0.000000 0.000000 0.575450 0.000000 0.000000 0.000000 0.000000 0.000000 0.000000 0.000000 2.337306 0.000000 0.000000 -2.337306 0.000000 0.000000 0.000000 0.000000 0.000000 0.000000 0.000000 0.000000 -2.337306 0.000000 0.000000 2.337306 0.000000 0.000000 0.000000 8.578828 0.000000 0.000000 1.905768 0.000000 0.000000 -4.658254 0.000000 0.000000 0.000000 0.000000 0.000000 8.578828 0.000000 0.000000 1.905768 0.000000 0.000000 -4.658254 0.000000 0.000000 0.000000 0.000000
-116.915936 94.627196 -167.328375 -162.606275 0.476896 3.156999 -0.641376 -3.834308 -0.295231 -0.263352 -1.690432 -0.138753 -0.263352 -1.690432 -0.138753 -0.197884 -1.267765 -0.104786 -1.956925 19.084742 -1.077211 -3.239484 -0.745959 -1.347708 -11.964587 13.469840 8.056760 2.952841 -13.382310 79.624805 -5.181292 14.491955 1.705032 -1.789618 -1.247978 -2.825838 1.599412 13.392915 -9.888549 6.485602 -16.677045 -83.384250 7.278133 13.261255 -1.187548 -1.229996 -5.536938 -2.280888 2.074596 4.448836 -0.099197 5.412190 -3.180782 1.476957 1.639579 -5.310235 -0.917665 -0.030286 -0.013603 -0.048687 10.837544 2.064536 -2.279665 6.407729 2.072271 -3.011285 11.797389 -3.001325 -16.517073 0.045109 -0.076580 0.028101
-116.898478 94.626232 -167.337078 -162.647351 0.420441 3.168734 -0.633690 -3.795809 -0.297802 -0.259799 -1.673564 -0.141320 -0.259799 -1.673564 -0.141320 -0.195223 -1.255113 -0.106694 -1.961534 19.062366 -1.082124 -3.246406 -0.787563 -1.354837 -11.956032 13.457108 8.066228 2.940465 -13.398842 79.625205 -5.184439 14.469384 1.707708 -1.766642 -1.260963 -2.807581 1.583974 13.371715 -9.900956 6.494202 -16.683831 -83.383218 7.282204 13.260530 -1.187022 -1.218949 -5.534438 -2.261023 2.060200 4.484659 -0.106336 5.432534 -3.139843 1.495458 1.673165 -5.327786 -0.929717 -0.029128 -0.010437 -0.050891 10.828563 2.135639 -2.267065 6.431894 2.055631 -3.012254 11.809133 -2.993782 -16.533646 0.042875 -0.075184 0.030147
-116.881295 94.625343 -167.347147 -162.693500 0.360785 3.179803 -0.626814 -3.757964 -0.300314 -0.258019 -1.657789 -0.144308 -0.258019 -1.657789 -0.144308 -0.193892 -1.243281 -0.108923 -1.961123 19.043843 -1.084759 -3.244853 -0.822005 -1.359466 -11.938680 13.445418 8.077611 2.930792 -13.404252 79.624168 -5.182298 14.438501 1.714999 -1.749409 -1.273019 -2.790342 1.580435 13.352897 -9.912327 6.495869 -16.685362 -83.379358 7.289488 13.244025 -1.189367 -1.208005 -5.531412 -2.236252 2.042534 4.532361 -0.112670 5.474863 -3.113443 1.506128 1.696065 -5.338165 -0.937880 -0.026801 -0.008457 -0.050991 10.829149 2.209315 -2.253982 6.454098 2.040586 -3.014857 11.837734 -2.992772 -16.546327 0.041543 -0.068017 0.029391
-116.864712 94.624448 -167.360508 -162.741673 0.304946 3.190837 -0.621288 -3.720103 -0.300703 -0.255168 -1.641980 -0.145963 -0.255168 -1.641980 -0.145963 -0.191755 -1.231424 -0.110151 -1.960885 19.026216 -1.090365 -3.242664 -0.854835 -1.369497 -11.920538 13.425280 8.085762 2.922762 -13.407697 79.620536 -5.184082 14.403767 1.725928 -1.739548 -1.285052 -2.776990 1.569300 13.322427 -9.928105 6.503393 -16.680587 -83.374332 7.295167 13.209528 -1.194036 -1.186200 -5.521464 -2.206012 2.031592 4.579853 -0.112417 5.514357 -3.090221 1.506193 1.715661 -5.349243 -0.941650 -0.027089 -0.005796 -0.051515 10.834138 2.277519 -2.248700 6.477256 2.030075 -3.013401 11.944755 -2.993381 -16.565266 0.045150 -0.056638 0.031941
-116.852544 94.623779 -167.369425 -162.784752 0.250517 3.205598 -0.617509 -3.687098 -0.304529 -0.252147 -1.626441 -0.147131 -0.252147 -1.626441 -0.147131 -0.189489 -1.219771 -0.111012 -1.964938 19.012543 -1.097353 -3.247880 -0.880318 -1.380758 -11.908447 13.396793 8.098166 2.906181 -13.399017 79.614620 -5.189372 14.375153 1.734870 -1.728745 -1.296672 -2.763553 1.552645 13.295870 -9.940829 6.521506 -16.680748 -83.377799 7.306333 13.173166 -1.194592 -1.165217 -5.510414 -2.182125 2.033461 4.633835 -0.117603 5.537413 -3.084372 1.500908 1.708346 -5.356049 -0.941618 -0.026069 -0.000308 -0.047359 10.838693 2.343543 -2.244530 6.495775 2.023894 -3.009847 11.992414 -2.993625 -16.578421 0.038237 -0.054135 0.027445
-116.842511 94.623107 -167.378139 -162.826973 0.195842 3.221007 -0.614588 -3.657548 -0.305257 -0.250791 -1.613076 -0.147890 -0.250791 -1.613076 -0.147890 -0.188471 -1.209746 -0.111572 -1.968888 19.003915 -1.104783 -3.252754 -0.896442 -1.392949 -11.887797 13.377186 8.103498 2.867244 -13.394848 79.620993 -5.195361 14.360133 1.738633 -1.717542 -1.316766 -2.755217 1.533438 13.270768 -9.957487 6.556416 -16.675420 -83.385145 7.315671 13.137388 -1.191655 -1.147494 -5.497368 -2.171020 2.048075 4.686875 -0.123620 5.554816 -3.076779 1.498818 1.709488 -5.362277 -0.947238 -0.026073 0.004345 -0.042054 10.841888 2.404660 -2.247545 6.513263 2.024993 -3.003832 12.034446 -2.997435 -16.590562 0.035648 -0.053538 0.026110
-116.838385 94.622808 -167.379741 -162.859836 0.145343 3.239910 -0.615831 -3.629631 -0.306429 -0.249973 -1.598986 -0.148005 -0.249973 -1.598986 -0.148005 -0.187855 -1.199179 -0.111650 -1.976741 18.990344 -1.111402 -3.265046 -0.921709 -1.402318 -11.873212 13.358407 8.104921 2.811406 -13.399190 79.633490 -5.200893 14.358865 1.738756 -1.704073 -1.333702 -2.738211 1.511251 13.245937 -9.974282 6.591802 -16.677440 -83.402241 7.330473 13.109475 -1.188271 -1.139860 -5.491628 -2.171535 2.062722 4.735762 -0.140107 5.559116 -3.072925 1.499403 1.706798 -5.368811 -0.948575 -0.026074 0.011098 -0.036774 10.840087 2.461866 -2.245794 6.525003 2.026331 -3.006999 11.992970 -2.995553 -16.590760 0.026541 -0.065206 0.019273
-116.835992 94.623438 -167.382272 -162.897286 0.093193 3.255345 -0.611989 -3.601254 -0.301590 -0.247647 -1.586541 -0.146320 -0.247647 -1.586541 -0.146320 -0.186103 -1.189847 -0.110376 -1.988296 18.979681 -1.118280 -3.284032 -0.941556 -1.411025 -11.863351 13.340184 8.105731 2.735024 -13.404417 79.648272 -5.211711 14.369207 1.734547 -1.687120 -1.337428 -2.722685 1.486248 13.222967 -9.990566 6.625935 -16.677640 -83.421182 7.344923 13.089969 -1.197048 -1.143974 -5.488908 -2.178129 2.084997 4.788691 -0.154924 5.559740 -3.074870 1.503780 1.712680 -5.368277 -0.951109 -0.026025 0.014468 -0.033320 10.841625 2.519356 -2.243901 6.536425 2.030693 -3.008255 11.914870 -2.995953 -16.591653 0.023715 -0.080111 0.017048
-116.828971 94.625041 -167.389641 -162.939109 0.039392 3.264701 -0.605317 -3.571425 -0.291106 -0.246067 -1.574895 -0.143874 -0.246067 -1.574895 -0.143874 -0.184910 -1.181113 -0.108533 -2.001618 18.968701 -1.124079 -3.306603 -0.961964 -1.417181 -11.850274 13.320249 8.109199 2.643539 -13.406791 79.662339 -5.220798 14.393735 1.728709 -1.671284 -1.345940 -2.702438 1.461576 13.199800 -10.008070 6.661913 -16.677477 -83.435543 7.361549 13.061816 -1.212346 -1.144749 -5.479328 -2.180205 2.112867 4.844112 -0.155723 5.563073 -3.075671 1.498746 1.725955 -5.363135 -0.953808 -0.027788 0.012472 -0.030050 10.851950 2.574038 -2.240979 6.550781 2.037612 -3.011545 12.005225 -2.999463 -16.604559 0.035656 -0.073708 0.023815
-116.823592 94.627001 -167.394592 -162.975897 -0.004586 3.276174 -0.600572 -3.546843 -0.281503 -0.244233 -1.564500 -0.139769 -0.244233 -1.564500 -0.139769 -0.183521 -1.173320 -0.105446 -2.019480 18.956415 -1.131640 -3.336931 -0.984798 -1.425081 -11.839965 13.294670 8.112774 2.553991 -13.402536 79.676255 -5.230370 14.409018 1.718570 -1.659091 -1.354359 -2.683423 1.434453 13.174080 -10.025186 6.693868 -16.677993 -83.454108 7.378770 13.009334 -1.220475 -1.132426 -5.466003 -2.172057 2.134406 4.888823 -0.160587 5.573665 -3.076577 1.493577 1.729825 -5.357958 -0.956232 -0.028514 0.010841 -0.026430 10.860623 2.620622 -2.238733 6.566174 2.044782 -3.014072 12.108163 -3.002527 -16.615608 0.038471 -0.066406 0.023993
-116.821078 94.628596 -167.395585 -163.006276 -0.040471 3.288633 -0.599444 -3.527917 -0.272036 -0.242907 -1.555656 -0.134637 -0.242907 -1.555656 -0.134637 -0.182512 -1.166689 -0.101590 -2.038382 18.944062 -1.139901 -3.368941 -1.007762 -1.433926 -11.831487 13.272090 8.113251 2.478459 -13.392909 79.688048 -5.238097 14.412045 1.709982 -1.650017 -1.362607 -2.667571 1.411451 13.147062 -10.042998 6.715334 -16.679824 -83.473565 7.404931 12.930058 -1.219793 -1.112293 -5.448536 -2.154915 2.149206 4.925795 -0.167699 5.586167 -3.080188 1.486130 1.729590 -5.353058 -0.956789 -0.028536 0.011205 -0.022384 10.866970 2.655979 -2.238479 6.576419 2.056977 -3.015027 12.096276 -3.006509 -16.616556 0.034132 -0.072723 0.020004
-116.821562 94.630214 -167.392518 -163.035052 -0.075331 3.301958 -0.600078 -3.509635 -0.261505 -0.241585 -1.546463 -0.128970 -0.241585 -1.546463 -0.128970 -0.181504 -1.159797 -0.097333 -2.057047 18.931393 -1.148179 -3.400513 -1.031313 -1.442866 -11.821354 13.245093 8.113871 2.413484 -13.376134 79.698376 -5.246624 14.410408 1.703371 -1.645501 -1.366014 -2.656499 1.392360 13.115355 -10.060882 6.724642 -16.676561 -83.489109 7.432053 12.851609 -1.220018 -1.091212 -5.435624 -2.135880 2.164774 4.958952 -0.178728 5.592675 -3.081002 1.479505 1.729996 -5.350879 -0.956653 -0.027877 0.013616 -0.017176 10.879898 2.688327 -2.238990 6.581428 2.073442 -3.014062 11.996272 -3.009851 -16.611436 0.026208 -0.088128 0.014204
-116.817851 94.632070 -167.395486 -163.069183 -0.116423 3.309479 -0.596384 -3.486560 -0.245286 -0.240569 -1.537345 -0.123002 -0.240569 -1.537345 -0.123002 -0.180725 -1.152961 -0.092851 -2.073765 18.917073 -1.156091 -3.428640 -1.057938 -1.451727 -11.812127 13.223313 8.117286 2.362113 -13.357948 79.704012 -5.257284 14.412215 1.701568 -1.644299 -1.372254 -2.650954 1.377352 13.090452 -10.078170 6.722569 -16.677818 -83.495749 7.459951 12.792759 -1.232484 -1.074058 -5.424617 -2.123378 2.185732 4.999731 -0.179444 5.604910 -3.080620 1.472833 1.727715 -5.346555 -0.960437 -0.028043 0.011964 -0.013737 10.906234 2.725720 -2.242324 6.582574 2.086534 -3.009891 12.035960 -3.015154 -16.617759 0.033938 -0.084223 0.018302
